<svg xmlns="http://www.w3.org/2000/svg" viewBox="0 0 450.95 512.57"><defs><style>.cls-1,.cls-11,.cls-14,.cls-19,.cls-8{fill:#fff;}.cls-1{stroke:#3156a2;stroke-width:9px;}.cls-1,.cls-12,.cls-15,.cls-20,.cls-6,.cls-9{stroke-miterlimit:10;}.cls-2{fill:#3156a2;}.cls-3{fill:#1d92b4;}.cls-4{fill:#edb51b;}.cls-5{fill:#589f44;}.cls-12,.cls-15,.cls-20,.cls-6,.cls-9{fill:none;stroke:#fff;}.cls-6{stroke-width:4px;}.cls-7,.cls-8,.cls-9{font-size:60px;}.cls-10,.cls-11,.cls-12,.cls-13,.cls-14,.cls-15,.cls-16,.cls-19,.cls-20,.cls-7,.cls-8,.cls-9{font-family:Asimovian-Regular, Asimovian;}.cls-10,.cls-11,.cls-12,.cls-13,.cls-14,.cls-15,.cls-17,.cls-7,.cls-8,.cls-9{letter-spacing:0.05em;}.cls-12,.cls-15,.cls-20,.cls-9{stroke-width:1.5px;}.cls-10,.cls-11,.cls-12,.cls-16,.cls-19,.cls-20{font-size:40px;}.cls-13,.cls-14,.cls-15{font-size:100px;}.cls-18{letter-spacing:0.05em;}</style></defs><g id="Layer_2" data-name="Layer 2"><g id="Layer_1-2" data-name="Layer 1"><polygon class="cls-1" points="65.13 157.46 65.13 343.11 225.92 435.94 386.7 343.11 386.7 157.46 225.92 64.63 65.13 157.46"/><polygon class="cls-2" points="222.2 108.82 343.2 180.82 343.2 323.82 310.2 340.82 310.2 200.82 192.2 130.82 222.2 108.82"/><polygon class="cls-3" points="273.2 363.69 240.07 382.08 240.07 240.38 273.2 222 273.2 363.69"/><polygon class="cls-4" points="133.86 341.96 100.69 322.81 133.86 303.65 133.86 341.96"/><polygon class="cls-5" points="206.2 383.82 170.2 361.98 170.2 283.67 206.2 261.82 206.2 383.82"/><ellipse class="cls-6" cx="39.46" cy="380.56" rx="11" ry="17.5" transform="translate(-330.53 283.14) rotate(-69.33)"/><ellipse class="cls-6" cx="321.25" cy="127.75" rx="17.5" ry="11" transform="translate(-16.47 201.69) rotate(-34.04)"/><path class="cls-6" d="M146.84,395a134.62,134.62,0,0,0-23,59,131.05,131.05,0,0,0,0,34"/><path class="cls-6" d="M311.84,391a207.82,207.82,0,0,1,21,58,206.26,206.26,0,0,1,4,39"/><path class="cls-6" d="M127.84,487c-11.83-2.92-25.65,6.8-25,13,.55,5.37,12,8.76,20,9,5.67.16,17.44-1,19-7C143.27,496.53,135.65,488.93,127.84,487Z"/><path class="cls-6" d="M334.36,488.56c11.83-2.92,25.65,6.8,25,13-.56,5.37-12,8.76-20,9-5.68.17-17.44-1-19-7C318.93,498.1,326.55,490.49,334.36,488.56Z"/><path class="cls-6" d="M60.84,241c-3.75,1-40.26,11.5-54,48-10.73,28.48-3.28,61.41,19,84"/><path class="cls-6" d="M391.84,268c6.78-2.15,34.58-11.79,49-40,10.49-20.54,8.27-39.9,7-51-1.73-15.06-4.68-40.8-25-56-18.85-14.1-42.65-11.67-59-10a121.64,121.64,0,0,0-30,7"/><text class="cls-7" transform="translate(290.63 81.8) rotate(-14.29)">?</text><text class="cls-8" transform="translate(290.63 81.8) rotate(-14.29)">?</text><text class="cls-9" transform="translate(290.63 81.8) rotate(-14.29)">?</text><text class="cls-10" transform="translate(336.67 95.03) rotate(24.34)">?</text><text class="cls-11" transform="translate(336.67 95.03) rotate(24.34)">?</text><text class="cls-12" transform="translate(336.67 95.03) rotate(24.34)">?</text><text class="cls-13" transform="translate(312.25 85.74) rotate(1.35)">?</text><text class="cls-14" transform="translate(312.25 85.74) rotate(1.35)">?</text><text class="cls-15" transform="translate(312.25 85.74) rotate(1.35)">?</text><text class="cls-16" transform="translate(79.96 132.99) rotate(-29.48)"><tspan class="cls-17">ER</tspan><tspan x="51.88" y="0">R</tspan><tspan class="cls-18" x="76.44" y="0">OR</tspan></text><text class="cls-19" transform="translate(79.96 132.99) rotate(-29.48)"><tspan class="cls-17">ER</tspan><tspan x="51.88" y="0">R</tspan><tspan class="cls-18" x="76.44" y="0">OR</tspan></text><text class="cls-20" transform="translate(79.96 132.99) rotate(-29.48)"><tspan class="cls-17">ER</tspan><tspan x="51.88" y="0">R</tspan><tspan class="cls-18" x="76.44" y="0">OR</tspan></text></g></g></svg>