<svg xmlns="http://www.w3.org/2000/svg" viewBox="0 0 584.53 483.38"><defs><style>.cls-1,.cls-8{fill:#fff;}.cls-1{stroke:#3156a2;stroke-width:9px;}.cls-1,.cls-6,.cls-9{stroke-miterlimit:10;}.cls-2{fill:#3156a2;}.cls-3{fill:#1d92b4;}.cls-4{fill:#edb51b;}.cls-5{fill:#589f44;}.cls-6,.cls-9{fill:none;stroke:#fff;}.cls-6{stroke-width:4px;}.cls-7,.cls-8,.cls-9{font-size:40px;font-family:Asimovian-Regular, Asimovian;letter-spacing:0.05em;}.cls-9{stroke-width:1.5px;}</style></defs><g id="Layer_2" data-name="Layer 2"><g id="Layer_1-2" data-name="Layer 1"><polygon class="cls-1" points="147.13 129.11 147.13 314.77 307.91 407.6 468.7 314.77 468.7 129.11 307.91 36.28 147.13 129.11"/><polygon class="cls-2" points="304.2 80.48 425.2 152.48 425.2 295.48 392.2 312.48 392.2 172.48 274.2 102.48 304.2 80.48"/><polygon class="cls-3" points="355.2 335.35 322.07 353.74 322.07 212.04 355.2 193.65 355.2 335.35"/><polygon class="cls-4" points="215.86 313.62 182.68 294.46 215.86 275.31 215.86 313.62"/><polygon class="cls-5" points="288.2 355.48 252.2 333.63 252.2 255.32 288.2 233.48 288.2 355.48"/><path class="cls-6" d="M145,225.87a275,275,0,0,0-26.72,26.32C112,259.3,104.61,268.5,92,278.87c-11.47,9.48-15.32,10.15-18,10-3.78-.21-10.62-2.15-23-22a180.06,180.06,0,0,1-20-45"/><path class="cls-6" d="M471,224.87c4,10.85,10.62,24.6,21,35,2.07,2.08,4.47,4.19,8,5,9.39,2.15,18.71-6.79,24-12,18.83-18.53,28.08-47.29,32-62"/><ellipse class="cls-6" cx="19.13" cy="212.19" rx="11" ry="17.5" transform="translate(-190.56 174.46) rotate(-74.65)"/><ellipse class="cls-6" cx="565.44" cy="181.85" rx="17.5" ry="11" transform="translate(-28.25 163.78) rotate(-16.08)"/><path class="cls-6" d="M230.48,365.81a134.86,134.86,0,0,0-23,59,131.5,131.5,0,0,0,0,34"/><path class="cls-6" d="M395.48,361.81a206.34,206.34,0,0,1,25,97"/><path class="cls-6" d="M211.48,457.81c-11.83-2.92-25.64,6.79-25,13,.56,5.37,12,8.76,20,9,5.68.16,17.44-1,19-7C226.91,467.34,219.3,459.73,211.48,457.81Z"/><path class="cls-6" d="M418,459.37c11.83-2.92,25.64,6.8,25,13-.56,5.37-12,8.76-20,9-5.68.16-17.44-1-19-7C402.58,468.9,410.2,461.3,418,459.37Z"/><text class="cls-7" transform="translate(144.58 112.44) rotate(-29.48)">MISSING</text><text class="cls-8" transform="translate(144.58 112.44) rotate(-29.48)">MISSING</text><text class="cls-9" transform="translate(144.58 112.44) rotate(-29.48)">MISSING</text></g></g></svg>